<svg xmlns="http://www.w3.org/2000/svg" xmlns:xlink="http://www.w3.org/1999/xlink" width="128" height="64" viewBox="0 0 128 64"><defs><polygon id="a" points="0 0 24.517 0 24.517 16.385 0 16.385"></polygon><polygon id="c" points="0 0 26.516 0 26.516 18.784 0 18.784"></polygon></defs><g fill="none" fill-rule="evenodd"><path fill="#1D1D1B" d="M25.222236,56.5205573 C25.222236,57.8955918 25.4770328,58.942987 25.9794016,59.6345639 C26.4745455,60.3151559 27.219188,60.6604667 28.1921362,60.6604667 L30.1876432,60.6604667 C30.2468871,60.6604667 30.2936079,60.710138 30.2936079,60.7679286 L30.2936079,63.416267 C30.2936079,63.4750129 30.2468871,63.5213409 30.1876432,63.5213409 L27.884357,63.5213409 C25.9803649,63.5213409 24.4838551,62.902838 23.437695,61.6839815 C22.3944248,60.4708562 21.8646016,58.7333169 21.8646016,56.5205573 L21.8646016,34.9479422 L18.2926295,34.9460317 C18.2333856,34.9460317 18.1866649,34.8982709 18.1866649,34.8404803 L18.1866649,32.3965582 C18.1866649,32.3378124 18.2333856,32.2914844 18.2926295,32.2914844 L25.119643,32.2890964 C25.1788868,32.2890964 25.2260893,32.335902 25.2260893,32.3946478 L25.222236,56.5205573 Z"></path><g transform="translate(68.621)"><mask id="b" fill="#fff"><use xlink:href="#a"></use></mask><path fill="#731846" d="M11.8608186,16.3846897 C11.7799001,16.3846897 11.7009083,16.370839 11.6248064,16.3436153 L4.65570398,13.8084701 C4.41102196,13.7191573 4.2371436,13.4994575 4.20968913,13.2415489 L4.20679918,13.2233998 C4.09601796,13.1508034 4.00450303,13.0462071 3.95103905,12.9153424 L0.0525032112,3.60293431 C-0.0910307249,3.26001149 0.0698428814,2.86598458 0.411819709,2.71792599 L0.648313544,2.61571779 C0.690699404,2.59756867 0.734530237,2.58324042 0.779806042,2.57321065 L12.9575527,0.0156177939 C13.2850798,-0.0555458541 13.6106803,0.120691637 13.7373562,0.426838606 L17.2115518,8.98080462 L24.0115924,11.1209678 C24.2842106,11.2074149 24.4759103,11.4538608 24.4884334,11.7375602 L24.5163695,12.3288393 C24.5337092,12.6450161 24.3256331,12.9306259 24.0188173,13.0165954 L12.0481833,16.3593764 C11.9850862,16.3760927 11.9229524,16.3846897 11.8608186,16.3846897" mask="url(#b)"></path></g><path fill="#C4333E" d="M103.027792,52.962757 C102.919419,52.962757 102.811528,52.9374438 102.713752,52.8882501 L89.4763585,46.1472855 C89.2610576,46.0374355 89.1218586,45.8268102 89.103074,45.5880061 L89.083326,45.3114708 C88.8810298,45.2584563 88.7081148,45.1118305 88.6243064,44.9117126 L82.248606,29.526514 C82.1763574,29.3526645 82.181174,29.1587555 82.2582392,28.9882493 C82.337231,28.8163103 82.4802833,28.684968 82.6599415,28.6243118 L101.461442,22.173733 C101.562109,22.13839 101.667592,22.1297931 101.763441,22.1403004 L101.935393,22.0815546 C102.287485,21.9631077 102.665586,22.1364796 102.799968,22.4760591 L108.363594,36.496253 L121.431444,42.0197939 C121.692984,42.1296438 121.857711,42.3889852 121.848078,42.6698189 L121.817252,43.5720211 C121.807618,43.8246759 121.659268,44.0505847 121.429517,44.1604346 L103.325938,52.8935038 C103.232978,52.9403094 103.130385,52.962757 103.027792,52.962757"></path><path fill="#87206D" d="M77.9994717,29.6308714 C77.9739438,29.3920672 77.8236667,29.18383 77.6035492,29.0835322 L69.483767,25.3901866 L64.7134311,14.1998224 C64.5703788,13.8659741 64.1913144,13.7007216 63.8478926,13.8239446 L46.3849181,18.2819412 C46.1903285,18.3320901 46.0256016,18.46391 45.9374583,18.6439683 C45.8488333,18.8240267 45.8469067,19.0332192 45.9268618,19.2156656 L51.2645903,31.2456653 C51.3344306,31.4023209 51.4639965,31.502141 51.6099387,31.5694838 L51.6739991,31.8976008 C51.7125317,32.0943754 51.8358361,32.2634488 52.0116411,32.3623137 L59.9874077,36.803594 C60.0914457,36.8613846 60.2065618,36.8900411 60.3240863,36.8900411 C60.3982615,36.8900411 60.4743634,36.8781009 60.5461304,36.8537429 L77.6155907,31.0646518 C77.9166266,30.961966 78.1078446,30.6653712 78.0746103,30.3491944 L77.9994717,29.6308714 Z"></path><g transform="translate(101.484 4.78)"><mask id="d" fill="#fff"><use xlink:href="#c"></use></mask><path fill="#D57D31" d="M26.0216725,12.7073514 L16.8268307,10.059013 L13.1835734,0.441413117 C13.0573791,0.111385729 12.6980626,-0.0686726288 12.358494,0.0244610045 L0.837246556,3.18813889 L0.489971495,3.29034708 C0.308386616,3.34431683 0.15521953,3.47231587 0.0714111244,3.64282206 C-0.0152872263,3.81380586 -0.0225120888,4.01201334 0.0468465917,4.18968365 L4.08458145,14.5308602 C4.15442178,14.7075753 4.29795572,14.81647 4.46268259,14.8866785 L4.46268259,14.9759912 C4.46268259,15.2682875 4.65197399,15.5276289 4.93229865,15.6198073 L14.4402178,18.7481422 C14.5119847,18.771545 14.5842334,18.7839628 14.6584086,18.7839628 C14.7393271,18.7839628 14.8212089,18.7696345 14.8973108,18.740978 L26.026489,14.6316356 C26.2803225,14.5385019 26.4527559,14.3073395 26.4715406,14.0394012 L26.5144081,13.4070477 C26.5360827,13.0880053 26.3304149,12.7966642 26.0216725,12.7073514" mask="url(#d)"></path></g><path fill="#1D1D1B" d="M43.5506045 64C42.3965531 64 41.3633978 63.74639 40.4790746 63.246334 39.7002344 62.8078895 39.0499968 62.1846106 38.5423298 61.3908254L38.5423298 63.4020343C38.5423298 63.4598249 38.4951274 63.5075858 38.4358835 63.5075858L35.289215 63.5075858C35.2309345 63.5075858 35.1827687 63.4598249 35.1827687 63.4020343L35.1827687 34.830546C35.1827687 34.7718002 35.2309345 34.7249946 35.289215 34.7249946L38.4358835 34.7249946C38.4951274 34.7249946 38.5423298 34.7718002 38.5423298 34.830546L38.5423298 46.4173252C39.0321755 45.638346 39.6766332 45.0207984 40.4622166 44.578533 41.3585812 44.0727457 42.4095579 43.8172252 43.5852839 43.8172252 45.9126529 43.8172252 47.7718509 44.7203827 49.1103771 46.4999515 50.4397518 48.2733114 51.1140723 50.7425467 51.1140723 53.8407922 51.1140723 56.9834553 50.4368619 59.4870785 49.1007439 61.2819307 47.7574012 63.0849024 45.890015 64 43.5506045 64M43.088695 46.6771442C41.6061532 46.6771442 40.4689598 47.2865725 39.7069776 48.4877576 38.934399 49.7042261 38.5423298 51.5282125 38.5423298 53.9086126 38.5423298 56.2770726 38.934399 58.0981933 39.7069776 59.3208707 40.4679965 60.5273095 41.6061532 61.1381706 43.088695 61.1381706 44.558232 61.1381706 45.6853106 60.5325632 46.4366963 59.337587 47.1977151 58.1249394 47.5835228 56.2985649 47.5835228 53.9086126 47.5835228 51.5186603 47.1977151 49.6913307 46.4366963 48.4777278 45.6747141 47.2669905 44.5789433 46.6771442 43.088695 46.6771442M.512483584 44.2697592C.453239711 44.2697592.406037276 44.3165648.406037276 44.3753106L.406037276 46.8727248C.406037276 46.9305154.453239711 46.9782763.512483584 46.9782763L10.880643 46.9768435 0 60.4945933 0 63.4189894C0 63.4777352.0472024354 63.5245409.106446308 63.5245409L14.418899 63.5245409C14.4781429 63.5245409 14.5253453 63.4777352 14.5253453 63.4189894L14.5253453 60.8709487C14.5253453 60.8131581 14.4781429 60.7658749 14.418899 60.7658749L3.64566565 60.7649197 14.5253453 47.2643637 14.5253453 44.3753106C14.5253453 44.3165648 14.4781429 44.2697592 14.418899 44.2697592L.512483584 44.2697592Z"></path></g></svg>